<svg xmlns="http://www.w3.org/2000/svg" xmlns:xlink="http://www.w3.org/1999/xlink" width="352.843" height="402.47" viewBox="0 0 352.843 402.47">
  <defs>
    <clipPath id="clip-path">
      <rect id="Rectangle_35" data-name="Rectangle 35" width="352.843" height="402.47" fill="none"/>
    </clipPath>
  </defs>
  <g id="Group_38" data-name="Group 38" transform="translate(-107 -1478.284)">
    <g id="Group_37" data-name="Group 37" transform="translate(107 1478.284)">
      <g id="Group_36" data-name="Group 36" clip-path="url(#clip-path)">
        <path id="Path_175" data-name="Path 175" d="M124.577,251.652q-3.016.8-6.134,1.446" transform="translate(68.361 145.244)" fill="none" stroke="#1e7b80" stroke-linecap="round" stroke-linejoin="round" stroke-width="2"/>
        <path id="Path_176" data-name="Path 176" d="M178.6,382.185C108.3,391.96,9.482,343.871,1.524,237.349-6.137,134.841,71.015,47.761,184,30.269" transform="translate(0.577 17.47)" fill="none" stroke="#1e7b80" stroke-linecap="round" stroke-linejoin="round" stroke-width="2" stroke-dasharray="7.859 4.912"/>
        <path id="Path_177" data-name="Path 177" d="M119.474,30.2q3.113-.435,6.261-.8" transform="translate(68.956 16.97)" fill="none" stroke="#1e7b80" stroke-linecap="round" stroke-linejoin="round" stroke-width="2"/>
        <path id="Path_178" data-name="Path 178" d="M94.37,40.418,59.444,3.237,78.495.276C85.015-.736,90.353.824,101,8.4c13.549,9.643,23.061,15.846,26.717,17.74,5.4,2.8,23.071,5.025,30.531,3.866l.845,5.43L98.032,45.64Z" transform="translate(34.309 0)" fill="#fff"/>
        <path id="Path_179" data-name="Path 179" d="M124.643,30.206a.494.494,0,0,1-.293-.047c-4.071-2.109-14.33-8.92-26.776-17.778-10.026-7.135-15.41-9.089-22.158-8.04L64.367,6.057a.48.48,0,0,1-.147-.948L75.27,3.393c7.039-1.093,12.594.9,22.859,8.209,14.835,10.556,23.5,16.068,26.66,17.705a.479.479,0,0,1-.147.9" transform="translate(36.832 1.797)" fill="#1e7b80"/>
        <path id="Path_180" data-name="Path 180" d="M81.589,36.34a28.663,28.663,0,0,0,32.72,23.922l153.9-23.907c21.06-3.273,38.213-12.15,37.522-16.6S285.92,6.03,269.447,7.16C250.811,8.434,81.589,36.34,81.589,36.34" transform="translate(47.09 4.078)" fill="#fff"/>
        <path id="Path_181" data-name="Path 181" d="M289.274,31.963,135.374,55.87a28.671,28.671,0,0,1-31.233-18.243L59.443,2.052,94.369,39.234a28.663,28.663,0,0,0,32.72,23.922l153.9-23.907c20.587-3.2,37.429-11.753,37.532-16.291-6.9,3.583-17.459,7.173-29.25,9" transform="translate(34.308 1.184)" fill="#d3f2ff"/>
        <path id="Path_182" data-name="Path 182" d="M133.823,27.348a6.21,6.21,0,0,1-5.184,7.091c-3.386.527-49.155,4.823-49.682,1.432s44.386-13.18,47.775-13.707a6.213,6.213,0,0,1,7.091,5.184" transform="translate(45.568 12.749)" fill="#d3f2ff"/>
        <path id="Path_183" data-name="Path 183" d="M133.821,25.424a6.21,6.21,0,0,1-5.184,7.091c-3.386.527-49.155,4.823-49.682,1.432Z" transform="translate(45.57 14.674)" fill="#52cece"/>
        <path id="Path_184" data-name="Path 184" d="M205.346,27.2a8.357,8.357,0,0,1-6.974,9.542c-4.561.708-66.159,6.49-66.865,1.927s59.737-17.738,64.3-18.447a8.358,8.358,0,0,1,9.542,6.977" transform="translate(75.897 11.614)" fill="#d3f2ff"/>
        <path id="Path_185" data-name="Path 185" d="M205.344,24.61a8.357,8.357,0,0,1-6.974,9.542c-4.561.708-66.159,6.49-66.865,1.927Z" transform="translate(75.899 14.204)" fill="#52cece"/>
        <path id="Path_186" data-name="Path 186" d="M194.5,27.884a5.445,5.445,0,0,1-6.208-4.539l-.643-4.134a5.439,5.439,0,0,1,10.748-1.67l.642,4.135a5.443,5.443,0,0,1-4.539,6.208M192.44,14.606a3.82,3.82,0,0,0-3.184,4.356L189.9,23.1a3.816,3.816,0,0,0,7.542-1.172l-.643-4.134a3.82,3.82,0,0,0-4.356-3.186" transform="translate(108.269 7.468)" fill="#1e7b80"/>
        <path id="Path_187" data-name="Path 187" d="M120.96,26.787a2.409,2.409,0,1,1-2.749-2.009,2.406,2.406,0,0,1,2.749,2.009" transform="translate(67.049 14.284)" fill="#1e7b80"/>
        <path id="Path_188" data-name="Path 188" d="M129.032,25.533a2.409,2.409,0,1,1-2.749-2.009,2.409,2.409,0,0,1,2.749,2.009" transform="translate(71.708 13.56)" fill="#1e7b80"/>
        <path id="Path_189" data-name="Path 189" d="M137.1,24.279a2.41,2.41,0,1,1-2.752-2.009,2.412,2.412,0,0,1,2.752,2.009" transform="translate(76.366 12.836)" fill="#1e7b80"/>
        <path id="Path_190" data-name="Path 190" d="M145.176,23.025a2.409,2.409,0,1,1-2.751-2.009,2.412,2.412,0,0,1,2.751,2.009" transform="translate(81.025 12.113)" fill="#1e7b80"/>
        <path id="Path_191" data-name="Path 191" d="M153.248,21.771a2.41,2.41,0,1,1-2.752-2.009,2.41,2.41,0,0,1,2.752,2.009" transform="translate(85.683 11.389)" fill="#1e7b80"/>
        <path id="Path_192" data-name="Path 192" d="M161.319,20.517a2.41,2.41,0,1,1-2.752-2.009,2.409,2.409,0,0,1,2.752,2.009" transform="translate(90.342 10.665)" fill="#1e7b80"/>
        <path id="Path_193" data-name="Path 193" d="M169.389,19.264a2.41,2.41,0,1,1-2.752-2.009,2.41,2.41,0,0,1,2.752,2.009" transform="translate(95 9.942)" fill="#1e7b80"/>
        <path id="Path_194" data-name="Path 194" d="M177.46,18.01A2.409,2.409,0,1,1,174.708,16a2.41,2.41,0,0,1,2.752,2.009" transform="translate(99.659 9.218)" fill="#1e7b80"/>
        <path id="Path_195" data-name="Path 195" d="M185.531,16.756a2.409,2.409,0,1,1-2.749-2.009,2.407,2.407,0,0,1,2.749,2.009" transform="translate(104.317 8.494)" fill="#1e7b80"/>
        <path id="Path_196" data-name="Path 196" d="M199.688,11.007a.827.827,0,0,0-.738.691.812.812,0,0,0,.511.877c.279.107,6.88,2.605,12.619,2.752a78.612,78.612,0,0,0,11.4-1.189c2.795-.435,5.5-.9,7.561-1.262a58.628,58.628,0,0,0-10.66-4.258C212.5,10,199.846,10.995,199.688,11.007" transform="translate(114.822 4.974)" fill="#1e7b80"/>
      </g>
    </g>
  </g>
</svg>
