<svg xmlns="http://www.w3.org/2000/svg" xmlns:xlink="http://www.w3.org/1999/xlink" width="151.37" height="133.5" viewBox="0 0 151.37 133.5">
  <defs>
    <clipPath id="clip-path">
      <path id="Path_7488" data-name="Path 7488" d="M35.988,7.373c-19.8,15.351.224,34.258.224,34.258C48,57.649,39.993,73,39.993,73a23.558,23.558,0,0,0,9.789-8.008c6.9-10.457-3.338-24.247-3.338-24.247-12.457-18.465-4.227-24.695-4.227-24.695s-2.892,11.792,8.232,23.8,5.562,22.47,5.562,22.47,2.89-.67,5.116-8.454S63.576,40.743,54.9,24.5,51.337.254,51.337.254A35.127,35.127,0,0,0,35.988,7.373" transform="translate(-27.246 -0.254)" fill="none"/>
    </clipPath>
    <linearGradient id="linear-gradient" x1="-0.688" y1="1.719" x2="-0.652" y2="1.719" gradientUnits="objectBoundingBox">
      <stop offset="0" stop-color="#006c2d"/>
      <stop offset="1" stop-color="#bdcf00"/>
    </linearGradient>
    <clipPath id="clip-path-2">
      <path id="Path_7489" data-name="Path 7489" d="M24.449,16.379s5.705,8.775,4.828,19.526,0,16.672,6.14,16.015,5.707-10.311-1.314-21.5S24.449,16.379,24.449,16.379Z" transform="translate(-24.449 -16.379)" fill="none"/>
    </clipPath>
    <linearGradient id="linear-gradient-2" x1="-1.118" y1="2.611" x2="-1.062" y2="2.611" gradientUnits="objectBoundingBox">
      <stop offset="0" stop-color="#4eaed7"/>
      <stop offset="1" stop-color="#0f65ad"/>
    </linearGradient>
    <clipPath id="clip-path-3">
      <path id="Path_7490" data-name="Path 7490" d="M45.364.344c-6.143.657-5.705,10.311,1.316,21.5s9.652,14.039,9.652,14.039-5.7-8.773-4.824-19.524C52.34,6.15,51.591.3,46.251.294a8.33,8.33,0,0,0-.887.05" transform="translate(-41.064 -0.294)" fill="none"/>
    </clipPath>
    <linearGradient id="linear-gradient-3" x1="-2.037" y1="3.52" x2="-1.979" y2="3.52" xlink:href="#linear-gradient-2"/>
    <clipPath id="clip-path-4">
      <rect id="Rectangle_432" data-name="Rectangle 432" width="151.37" height="133.5" fill="none"/>
    </clipPath>
  </defs>
  <g id="Group_921" data-name="Group 921" transform="translate(0 -0.001)">
    <path id="Path_7486" data-name="Path 7486" d="M39.111,56.239H11.618V4.7l31.37.122-.019,4.849-26.5-.106V51.392H39.111Z" transform="translate(12.467 5.039)" fill="#2bbba7"/>
    <path id="Path_7487" data-name="Path 7487" d="M78.04,56.235H44.408V51.388H73.191V9.549H52.7V4.7H78.04Z" transform="translate(47.654 5.043)" fill="#2bbba7"/>
    <g id="Group_922" data-name="Group 922" transform="translate(56.484 0.526)">
      <g id="Group_921-2" data-name="Group 921" clip-path="url(#clip-path)">
        <rect id="Rectangle_429" data-name="Rectangle 429" width="58.198" height="79.27" transform="translate(-22.313 1.785) rotate(-9.014)" fill="url(#linear-gradient)"/>
      </g>
    </g>
    <g id="Group_924" data-name="Group 924" transform="translate(50.685 33.954)">
      <g id="Group_923" data-name="Group 923" clip-path="url(#clip-path-2)">
        <rect id="Rectangle_430" data-name="Rectangle 430" width="36.605" height="38.585" transform="translate(-17.904 15.45) rotate(-40.793)" fill="url(#linear-gradient-2)"/>
      </g>
    </g>
    <g id="Group_926" data-name="Group 926" transform="translate(85.128 0.609)">
      <g id="Group_925" data-name="Group 925" clip-path="url(#clip-path-3)">
        <rect id="Rectangle_431" data-name="Rectangle 431" width="36.205" height="38.122" transform="matrix(0.757, -0.653, 0.653, 0.757, -19.445, 15.19)" fill="url(#linear-gradient-3)"/>
      </g>
    </g>
    <g id="Group_928" data-name="Group 928" transform="translate(0 0.001)">
      <g id="Group_927" data-name="Group 927" clip-path="url(#clip-path-4)">
        <path id="Path_7491" data-name="Path 7491" d="M136.16,60.116V37.76h4.3V49.491l5.253-5.877h5.315l-5.755,6.12,6.1,10.382h-5.3l-3.947-7.03-1.669,1.808v5.222Zm-19.823-8.274a9.025,9.025,0,0,1,2.233-6.466,9.159,9.159,0,0,1,12.258,0,9,9,0,0,1,2.239,6.466,9.025,9.025,0,0,1-2.239,6.483,9.165,9.165,0,0,1-12.258,0,9.05,9.05,0,0,1-2.233-6.483m4.476,0a6.188,6.188,0,0,0,1.012,3.794,3.735,3.735,0,0,0,5.724,0,6.188,6.188,0,0,0,1.012-3.794,6.176,6.176,0,0,0-1-3.773,3.765,3.765,0,0,0-5.734,0,6.134,6.134,0,0,0-1.012,3.773m-23.37,0a9.016,9.016,0,0,1,2.233-6.466,9.159,9.159,0,0,1,12.258,0,9,9,0,0,1,2.239,6.466,9.025,9.025,0,0,1-2.239,6.483,9.165,9.165,0,0,1-12.258,0,9.041,9.041,0,0,1-2.233-6.483m4.476,0a6.189,6.189,0,0,0,1.01,3.794,3.737,3.737,0,0,0,5.726,0,6.189,6.189,0,0,0,1.01-3.794,6.177,6.177,0,0,0-1-3.773,3.767,3.767,0,0,0-5.736,0,6.134,6.134,0,0,0-1.01,3.773M86.344,60.116v-16.5h4.1V46.44a6.6,6.6,0,0,1,2.021-2.494,4.693,4.693,0,0,1,2.745-.8c.172,0,.307,0,.4.006a1.845,1.845,0,0,1,.234.027l.015,4.476h-1.47a3.611,3.611,0,0,0-2.716.943,3.864,3.864,0,0,0-.912,2.792v8.723Zm-7.393-8.361a5.917,5.917,0,0,0-.96-3.576,3.076,3.076,0,0,0-2.62-1.3,3.227,3.227,0,0,0-2.726,1.271,5.862,5.862,0,0,0-.962,3.605,6.634,6.634,0,0,0,.916,3.823,3.07,3.07,0,0,0,2.678,1.306,3.14,3.14,0,0,0,2.73-1.312,6.506,6.506,0,0,0,.943-3.817m-11.564-14h4.3v7.907a5.491,5.491,0,0,1,2.056-1.953,6.161,6.161,0,0,1,7.7,1.808,10.223,10.223,0,0,1,1.9,6.414,9.934,9.934,0,0,1-1.9,6.327A6,6,0,0,1,76.5,60.675a5.523,5.523,0,0,1-2.774-.668,6.4,6.4,0,0,1-2.133-2.125v2.233h-4.2ZM48.732,60.116v-16.5h4.327v1.959a6.029,6.029,0,0,1,2.185-1.8,6.479,6.479,0,0,1,2.809-.6,5.419,5.419,0,0,1,4.092,1.418A5.974,5.974,0,0,1,63.5,48.869V60.116h-4.42V50.142a4.129,4.129,0,0,0-.6-2.533,2.321,2.321,0,0,0-1.947-.761,3.288,3.288,0,0,0-2.471.933,3.489,3.489,0,0,0-.914,2.544v9.791Zm-8.087-8.124a11.776,11.776,0,0,1-2.481.811c-.939.2-1.426.3-1.451.315a3.6,3.6,0,0,0-1.638.833,1.979,1.979,0,0,0-.46,1.383,1.872,1.872,0,0,0,.591,1.453,2.3,2.3,0,0,0,1.594.537,3.839,3.839,0,0,0,2.819-1.01,3.693,3.693,0,0,0,1.026-2.757Zm.077,6.078a5.547,5.547,0,0,1-2.185,1.963,6.943,6.943,0,0,1-3.147.674A4.846,4.846,0,0,1,31.7,59.338a5.424,5.424,0,0,1-1.3-3.885,4.678,4.678,0,0,1,1.3-3.566A7.924,7.924,0,0,1,35.982,50.2c.454-.066,1.051-.151,1.791-.238,1.876-.243,2.809-.788,2.809-1.627a1.625,1.625,0,0,0-.622-1.435,3.806,3.806,0,0,0-2.077-.431A3.4,3.4,0,0,0,35.831,47a1.776,1.776,0,0,0-.715,1.515v.245h-4.13v-.3a4.832,4.832,0,0,1,1.793-3.98,7.644,7.644,0,0,1,4.948-1.451,9.763,9.763,0,0,1,5.305,1.2,3.886,3.886,0,0,1,1.843,3.46v9.383a4.3,4.3,0,0,0,.214,1.544,1.454,1.454,0,0,0,.715.761v.746H41.2a3.929,3.929,0,0,1-.348-.941,5.286,5.286,0,0,1-.135-1.1M28.712,60.236c-.4.01-.885.031-1.451.056s-.916.037-1.066.037c-1.7,0-2.85-.317-3.472-.947s-.931-1.882-.931-3.742V46.713H19.605v-3.1h2.187V39.107h4.372v4.507h2.548v3.1H26.164v9.138a1,1,0,0,0,.288.856,2.243,2.243,0,0,0,1.182.207h1.078ZM0,53.21H4.538a3.834,3.834,0,0,0,1.5,2.726,6.163,6.163,0,0,0,3.595.885,5.248,5.248,0,0,0,3.02-.715A2.4,2.4,0,0,0,13.672,54q0-2.037-5.844-3.369L7.693,50.6c-.1-.019-.259-.056-.471-.108a14.518,14.518,0,0,1-4.461-1.534,4.881,4.881,0,0,1-1.808-2.04A6.865,6.865,0,0,1,.332,43.89a5.983,5.983,0,0,1,2.218-5q2.214-1.735,6.4-1.737A9.258,9.258,0,0,1,15.077,39a6.8,6.8,0,0,1,2.33,5.222h-4.42a3.239,3.239,0,0,0-1.244-2.471,5.233,5.233,0,0,0-3.2-.85,4.689,4.689,0,0,0-2.786.7,2.327,2.327,0,0,0-.981,2.009c0,1.188,1.269,2.067,3.808,2.66.69.16,1.229.284,1.611.377,1.627.415,2.788.74,3.466.968a10.938,10.938,0,0,1,1.789.777A5.1,5.1,0,0,1,17.5,50.407a6.19,6.19,0,0,1,.684,3,6.584,6.584,0,0,1-2.353,5.409A10.229,10.229,0,0,1,9.2,60.738a10.156,10.156,0,0,1-6.615-1.959A7.265,7.265,0,0,1,0,53.21" transform="translate(0 39.862)" fill="#ee7c00"/>
        <line id="Line_15" data-name="Line 15" x1="38.968" transform="translate(0 111.696)" fill="none" stroke="#009d97" stroke-width="0.638"/>
        <path id="Path_7492" data-name="Path 7492" d="M69.953,61.013V54.234h1.032v.958a2.383,2.383,0,0,1,2.05-1.1,2.228,2.228,0,0,1,1.231.311,1.66,1.66,0,0,1,.678.873,2.444,2.444,0,0,1,2.1-1.184,2.077,2.077,0,0,1,1.557.556,2.381,2.381,0,0,1,.545,1.719v4.648H78V56.746a3.123,3.123,0,0,0-.114-.991.946.946,0,0,0-.406-.487,1.265,1.265,0,0,0-.69-.187,1.614,1.614,0,0,0-1.19.475,2.1,2.1,0,0,0-.473,1.522v3.935H73.974v-4.4a1.942,1.942,0,0,0-.28-1.148,1.063,1.063,0,0,0-.918-.384,1.675,1.675,0,0,0-.9.255,1.449,1.449,0,0,0-.595.748A4.218,4.218,0,0,0,71.1,57.5v3.514Zm-9.389-2.025L61.7,58.8a1.6,1.6,0,0,0,.535,1.047,1.871,1.871,0,0,0,1.223.363,1.8,1.8,0,0,0,1.178-.321.962.962,0,0,0,.384-.755.692.692,0,0,0-.346-.612,4.989,4.989,0,0,0-1.175-.39,10.809,10.809,0,0,1-1.746-.549,1.678,1.678,0,0,1-.991-1.551,1.751,1.751,0,0,1,.205-.838,1.888,1.888,0,0,1,.566-.641,2.413,2.413,0,0,1,.728-.332,3.48,3.48,0,0,1,.991-.137,3.849,3.849,0,0,1,1.4.23,1.888,1.888,0,0,1,.889.622A2.433,2.433,0,0,1,65.931,56l-1.122.155a1.262,1.262,0,0,0-.442-.827,1.609,1.609,0,0,0-1.034-.3,1.87,1.87,0,0,0-1.126.261.766.766,0,0,0-.338.612.632.632,0,0,0,.141.4,1.006,1.006,0,0,0,.44.3c.114.044.45.143,1.012.294a14.545,14.545,0,0,1,1.7.531,1.742,1.742,0,0,1,.757.6,1.671,1.671,0,0,1,.278.983,1.916,1.916,0,0,1-.336,1.078,2.2,2.2,0,0,1-.966.784,3.543,3.543,0,0,1-1.43.276,3.2,3.2,0,0,1-2.015-.547,2.548,2.548,0,0,1-.883-1.621m-4.845-4.754h1.151v6.779H55.719Zm0-2.573h1.151v1.306H55.719Zm-6.764,9.352V54.234h1.032v1.039a2.749,2.749,0,0,1,.732-.952,1.265,1.265,0,0,1,.738-.23,2.269,2.269,0,0,1,1.182.363l-.408,1.059a1.71,1.71,0,0,0-.838-.234,1.085,1.085,0,0,0-.672.226,1.225,1.225,0,0,0-.425.626A4.438,4.438,0,0,0,50.1,57.47v3.543Zm-5.224,0V60a2.467,2.467,0,0,1-2.144,1.153,2.762,2.762,0,0,1-1.117-.228,1.841,1.841,0,0,1-.769-.578,2.179,2.179,0,0,1-.354-.85,5.982,5.982,0,0,1-.068-1.072V54.234h1.148v3.75a6.778,6.778,0,0,0,.07,1.211,1.178,1.178,0,0,0,.458.709,1.417,1.417,0,0,0,.864.259,1.888,1.888,0,0,0,.968-.263,1.49,1.49,0,0,0,.639-.719,3.642,3.642,0,0,0,.187-1.323V54.234h1.151v6.779ZM30.382,57.625a2.867,2.867,0,0,0,.568,1.942,1.9,1.9,0,0,0,2.861,0,2.937,2.937,0,0,0,.568-1.978,2.78,2.78,0,0,0-.572-1.9,1.819,1.819,0,0,0-1.42-.647,1.837,1.837,0,0,0-1.437.643,2.868,2.868,0,0,0-.568,1.94m-1.175,0a3.478,3.478,0,0,1,1.047-2.782,3.155,3.155,0,0,1,2.133-.75A3.045,3.045,0,0,1,34.669,55a3.475,3.475,0,0,1,.885,2.523,4.467,4.467,0,0,1-.392,2.052,2.794,2.794,0,0,1-1.142,1.163,3.326,3.326,0,0,1-1.634.413,3.052,3.052,0,0,1-2.3-.91,3.634,3.634,0,0,1-.877-2.622m-3.1,2.363L26.26,61a4.236,4.236,0,0,1-.864.1,1.949,1.949,0,0,1-.968-.2,1.115,1.115,0,0,1-.485-.52,4.146,4.146,0,0,1-.139-1.358V55.121h-.848v-.887H23.8V52.557l1.151-.688v2.365H26.1v.887H24.954v3.972a1.978,1.978,0,0,0,.06.632.474.474,0,0,0,.195.224.787.787,0,0,0,.392.083,3.525,3.525,0,0,0,.5-.046" transform="translate(24.634 55.435)" fill="#111"/>
        <path id="Path_7493" data-name="Path 7493" d="M143.3,65.55c-.058-1.938-3.089-1.335-3.089-2.417,0-.361.311-.6.906-.6a.888.888,0,0,1,1,.788h1.111a1.839,1.839,0,0,0-2.075-1.723c-1.267,0-2.067.69-2.067,1.549,0,1.967,3.118,1.364,3.118,2.415,0,.371-.338.645-.983.645a.979.979,0,0,1-1.072-.8h-1.151a2.027,2.027,0,0,0,2.241,1.735c1.267,0,2.056-.682,2.056-1.588m-6.553-.1h-1.2a1.3,1.3,0,0,1-1.267.75,1.478,1.478,0,0,1-1.53-1.422h4.1a3.492,3.492,0,0,0,.039-.547,2.5,2.5,0,0,0-2.612-2.639,2.569,2.569,0,0,0-2.678,2.765,2.605,2.605,0,0,0,2.678,2.778,2.451,2.451,0,0,0,2.465-1.685m-2.513-2.923a1.4,1.4,0,0,1,1.5,1.354h-2.973a1.463,1.463,0,0,1,1.472-1.354m-9.787,1.831a2.568,2.568,0,0,0,2.631,2.778,2.414,2.414,0,0,0,2.475-1.783h-1.2a1.224,1.224,0,0,1-1.275.848c-.9,0-1.491-.663-1.491-1.843s.593-1.831,1.491-1.831a1.254,1.254,0,0,1,1.275.848h1.2a2.335,2.335,0,0,0-2.475-1.783,2.563,2.563,0,0,0-2.631,2.765m-3.522,0a1.669,1.669,0,0,1-1.627,1.814,1.693,1.693,0,0,1-1.627-1.833,1.647,1.647,0,0,1,1.627-1.783,1.665,1.665,0,0,1,1.627,1.8m-4.395-.019a2.6,2.6,0,0,0,2.515,2.8,2.313,2.313,0,0,0,1.88-.887v.8h1.119V61.681h-1.119v.779a2.284,2.284,0,0,0-1.862-.867,2.555,2.555,0,0,0-2.533,2.747m-3.512,2.71h1.111V59.84h-1.111Zm-2.372-4.756c0-1.1-.79-2.017-2.4-2.017h-2.338V67.05h1.111V64.3h1.227c1.762,0,2.4-1.043,2.4-2.007m-3.624,1.1V61.184h1.227c.867,0,1.256.41,1.256,1.111,0,.682-.39,1.1-1.256,1.1Zm-3.62,3.01a.707.707,0,1,0-.7.713.7.7,0,0,0,.7-.713m-3.659,0a.706.706,0,1,0-.7.713.7.7,0,0,0,.7-.713m-3.7-.954h-1.2a1.3,1.3,0,0,1-1.267.75,1.478,1.478,0,0,1-1.53-1.422h4.1a3.487,3.487,0,0,0,.037-.547,2.5,2.5,0,0,0-2.61-2.639,2.571,2.571,0,0,0-2.68,2.765,2.606,2.606,0,0,0,2.68,2.778,2.455,2.455,0,0,0,2.465-1.685m-2.515-2.923a1.394,1.394,0,0,1,1.5,1.354H92.068a1.459,1.459,0,0,1,1.47-1.354M87.395,67.05h1.111V59.84H87.395Zm-3.541-2.71a1.694,1.694,0,0,1-1.638,1.833,1.818,1.818,0,0,1,0-3.615,1.647,1.647,0,0,1,1.638,1.783m-3.263-1.872v-.788H79.48V69.6h1.111V66.271a2.424,2.424,0,0,0,1.87.867,2.59,2.59,0,0,0,2.523-2.8,2.546,2.546,0,0,0-2.523-2.747,2.339,2.339,0,0,0-1.87.875M72.722,64.36a1.6,1.6,0,0,1,1.59-1.8,1.624,1.624,0,0,1,1.617,1.8,1.655,1.655,0,0,1-1.648,1.814c-.838,0-1.559-.595-1.559-1.814m4.347,0a2.739,2.739,0,1,0-5.477,0,2.619,2.619,0,0,0,2.689,2.778,2.691,2.691,0,0,0,2.788-2.778M69.4,65.452h-1.2a1.3,1.3,0,0,1-1.269.75,1.475,1.475,0,0,1-1.528-1.422h4.1a3.49,3.49,0,0,0,.039-.547,2.5,2.5,0,0,0-2.612-2.639,2.569,2.569,0,0,0-2.678,2.765,2.605,2.605,0,0,0,2.678,2.778A2.451,2.451,0,0,0,69.4,65.452m-2.513-2.923a1.4,1.4,0,0,1,1.5,1.354H65.42a1.463,1.463,0,0,1,1.472-1.354m-4.633-.234c0-1.1-.788-2.017-2.4-2.017H57.524V67.05h1.111V64.3h1.227c1.764,0,2.4-1.043,2.4-2.007m-3.624,1.1V61.184h1.227c.867,0,1.256.41,1.256,1.111,0,.682-.39,1.1-1.256,1.1Zm-3.62,3.01a.706.706,0,1,0-.7.713.7.7,0,0,0,.7-.713m-3.659,0a.706.706,0,1,0-.7.713.7.7,0,0,0,.7-.713m-4.973.645h1.1V63.883a2.089,2.089,0,0,0-2.2-2.289,2.056,2.056,0,0,0-1.6.7v-.614H42.575V67.05h1.111v-3a1.3,1.3,0,0,1,1.354-1.491c.808,0,1.343.506,1.343,1.491ZM35.817,64.36a1.6,1.6,0,0,1,1.588-1.8,1.625,1.625,0,0,1,1.619,1.8,1.655,1.655,0,0,1-1.648,1.814c-.838,0-1.559-.595-1.559-1.814m4.347,0a2.739,2.739,0,1,0-5.477,0,2.618,2.618,0,0,0,2.689,2.778,2.691,2.691,0,0,0,2.788-2.778M31.731,60.97a.711.711,0,1,0-.711-.711.7.7,0,0,0,.711.711m-.564,6.08h1.111V61.681H31.167Zm-2.51-1.5c-.058-1.938-3.087-1.335-3.087-2.417,0-.361.311-.6.906-.6a.888.888,0,0,1,1,.788H28.59a1.839,1.839,0,0,0-2.075-1.723c-1.267,0-2.067.69-2.067,1.549,0,1.967,3.118,1.364,3.118,2.415,0,.371-.34.645-.983.645a.977.977,0,0,1-1.072-.8H24.361A2.025,2.025,0,0,0,26.6,67.138c1.267,0,2.054-.682,2.054-1.588m-6.512,0c-.058-1.938-3.089-1.335-3.089-2.417,0-.361.311-.6.906-.6a.887.887,0,0,1,1,.788h1.111A1.839,1.839,0,0,0,20,61.594c-1.267,0-2.067.69-2.067,1.549,0,1.967,3.118,1.364,3.118,2.415,0,.371-.34.645-.983.645A.98.98,0,0,1,19,65.4H17.847a2.027,2.027,0,0,0,2.241,1.735c1.267,0,2.056-.682,2.056-1.588m-7.9-1.19a1.669,1.669,0,0,1-1.627,1.814,1.692,1.692,0,0,1-1.627-1.833,1.646,1.646,0,0,1,1.627-1.783,1.665,1.665,0,0,1,1.627,1.8m-4.395-.019a2.6,2.6,0,0,0,2.515,2.8,2.313,2.313,0,0,0,1.88-.887v.8h1.119V61.681H14.248v.779a2.283,2.283,0,0,0-1.86-.867,2.554,2.554,0,0,0-2.535,2.747m-2-2.046c0-1.1-.788-2.017-2.4-2.017H3.116V67.05H4.227V64.3H5.454c1.764,0,2.4-1.043,2.4-2.007M4.227,63.4V61.184H5.454c.869,0,1.258.41,1.258,1.111,0,.682-.39,1.1-1.258,1.1Z" transform="translate(3.344 63.899)" fill="#111"/>
        <line id="Line_16" data-name="Line 16" x1="38.968" transform="translate(112.403 111.696)" fill="none" stroke="#009d97" stroke-width="0.638"/>
      </g>
    </g>
  </g>
</svg>
